<svg width="16" height="16" viewBox="0 0 16 16" fill="none" xmlns="http://www.w3.org/2000/svg">
<g clip-path="url(#clip0_2103_3134)">
<path d="M11.4578 11.3948H12.3953V13.7947H11.4578V11.3948Z" fill="#666666"/>
<path d="M11.9254 10.7722C12.1706 10.7722 12.4055 10.5566 12.3942 10.3035C12.3828 10.0495 12.1882 9.83472 11.9254 9.83472C11.6803 9.83472 11.4453 10.0503 11.4567 10.3035C11.4681 10.5574 11.6627 10.7722 11.9254 10.7722Z" fill="#666666"/>
<path d="M12.753 7.97375V0H2.06016C0.924188 0 0 0.897 0 2.03297V14.0005H0.00990625C0.114031 15.1203 1.05859 16 2.20516 16H11.9316C14.1749 16 16 14.2021 16 11.9588C16 9.99678 14.6039 8.35475 12.753 7.97375ZM11.8141 7.89219C9.74847 7.95109 8.06378 9.55712 7.88009 11.5897H3.77019V0.911781H11.8141V7.89219ZM2.06016 0.911781H2.83119V11.5897H2.20516C1.73419 11.5897 1.29759 11.7386 0.938969 11.9911V2.03297C0.938969 1.41472 1.44194 0.911781 2.06016 0.911781ZM2.20516 15.061C1.50697 15.061 0.938969 14.493 0.938969 13.7948C0.938969 13.0967 1.50697 12.5287 2.20516 12.5287H7.90325C7.94231 12.806 8.00934 13.0745 8.10159 13.3312H2.37944V14.2701H8.58547C8.78919 14.5642 9.03059 14.8301 9.30269 15.0611H2.20516V15.061ZM11.9316 15.0882C10.206 15.0882 8.80216 13.6843 8.80216 11.9588C8.80216 10.2332 10.206 8.82934 11.9316 8.82934C13.6572 8.82934 15.061 10.2332 15.061 11.9588C15.061 13.6843 13.6572 15.0882 11.9316 15.0882Z" fill="#666666"/>
<path d="M6.2749 2.73755H9.41743V3.67652H6.2749V2.73755Z" fill="#666666"/>
<path d="M5.21338 4.77588H10.4789V5.71485H5.21338V4.77588Z" fill="#666666"/>
</g>
<defs>
<clipPath id="clip0_2103_3134">
<rect width="16" height="16" fill="white"/>
</clipPath>
</defs>
</svg>
