<svg width="16" height="16" viewBox="0 0 16 16" fill="none" xmlns="http://www.w3.org/2000/svg">
<g clip-path="url(#clip0_2104_3184)">
<path d="M15.5162 13.2178C14.585 12.2882 12.3108 10.0179 11.4075 9.11607C12.7668 6.8148 12.3551 3.64927 10.4196 1.78209C8.03838 -0.594029 4.16378 -0.594029 1.78254 1.78209C-0.587168 4.0512 -0.587543 8.13433 1.7826 10.4034C3.74379 12.358 6.72841 12.7232 9.08806 11.4102L13.2083 15.5234C13.5265 15.8409 13.9443 15.9996 14.3622 15.9996C15.2263 16.0202 16.0146 15.254 15.9946 14.3705C15.9946 13.935 15.8247 13.5256 15.5162 13.2178ZM2.44479 9.73969C0.439726 7.81969 0.439383 4.36571 2.44486 2.44574C4.46086 0.433865 7.7413 0.434115 9.75743 2.44574C11.7625 4.36568 11.7628 7.81982 9.75734 9.73969C7.74136 11.7514 4.46086 11.7514 2.44479 9.73969ZM10.4196 10.4034C10.5796 10.2438 10.7292 10.0766 10.8689 9.90314L11.841 10.8736L10.8591 11.8535L9.88309 10.8791C10.0689 10.7327 10.2482 10.5744 10.4196 10.4034ZM14.8539 14.8598C14.5828 15.1303 14.1417 15.1303 13.8706 14.8598L11.5226 12.5158L12.5046 11.536L14.8539 13.8814C15.1229 14.139 15.123 14.6021 14.8539 14.8598Z" fill="#666666"/>
<path d="M8.95384 3.36987H7.05234C6.79345 3.36987 6.58356 3.57976 6.58356 3.83865V4.92001H5.15021C4.89133 4.92001 4.68144 5.1299 4.68144 5.38878V6.06957H3.24856C2.98967 6.06957 2.77979 6.27945 2.77979 6.53834V8.33762C2.77979 8.5965 2.98967 8.80639 3.24856 8.80639L8.95384 8.81573C9.21272 8.81573 9.42261 8.60585 9.42261 8.34696V3.83865C9.42261 3.57976 9.21272 3.36987 8.95384 3.36987ZM4.68128 7.86884H3.71733V7.00711H4.68128V7.86884ZM6.58294 7.86884H5.61899V5.85756H6.58294V7.86884ZM8.48506 7.87819H7.52111V4.30742H8.48506V7.87819Z" fill="#666666"/>
</g>
<defs>
<clipPath id="clip0_2104_3184">
<rect width="16" height="16" fill="white"/>
</clipPath>
</defs>
</svg>
