<svg width="16" height="16" viewBox="0 0 16 16" fill="none" xmlns="http://www.w3.org/2000/svg">
<g clip-path="url(#clip0_2103_3151)">
<path d="M13.1984 2.92891C13.4262 3.05831 13.6892 3.13266 13.9695 3.13266C14.8331 3.13266 15.5358 2.43 15.5358 1.56634C15.5358 0.702656 14.8331 0 13.9695 0C13.1058 0 12.4031 0.702656 12.4031 1.56634C12.4031 1.80691 12.4578 2.03491 12.5551 2.23878L10.8643 3.51925C10.6144 3.35044 10.3134 3.25178 9.9898 3.25178C9.67395 3.25178 9.37986 3.34606 9.13358 3.5075L7.47589 2.15116C7.54071 1.9795 7.57642 1.79372 7.57642 1.59966C7.57642 0.736 6.87377 0.0333438 6.01011 0.0333438C5.14646 0.0333438 4.4438 0.736 4.4438 1.59966C4.4438 1.81856 4.48911 2.02706 4.57058 2.21647L2.40508 4.49456C2.28495 4.46497 2.15955 4.44894 2.03042 4.44894C1.16677 4.44894 0.464111 5.15159 0.464111 6.01525C0.464111 6.87891 1.16677 7.58156 2.03042 7.58156C2.89408 7.58156 3.59674 6.87891 3.59674 6.01525C3.59674 5.62759 3.45486 5.27266 3.22071 4.99884L5.1863 2.93106C5.4258 3.07981 5.70802 3.166 6.01011 3.166C6.33902 3.166 6.64439 3.06388 6.89667 2.89L8.53746 4.2325C8.46421 4.41353 8.42346 4.61109 8.42346 4.81809C8.42346 5.68175 9.12611 6.38441 9.98977 6.38441C10.8534 6.38441 11.5561 5.68175 11.5561 4.81809C11.5561 4.61884 11.5183 4.42837 11.4501 4.25294L13.1984 2.92891ZM13.9695 0.938563C14.3156 0.938563 14.5972 1.22016 14.5972 1.56634C14.5972 1.91247 14.3156 2.19406 13.9695 2.19406C13.6233 2.19406 13.3417 1.91247 13.3417 1.56634C13.3417 1.22019 13.6233 0.938563 13.9695 0.938563ZM2.03042 6.643C1.6843 6.643 1.40267 6.36141 1.40267 6.01525C1.40267 5.66909 1.68427 5.3875 2.03042 5.3875C2.37655 5.3875 2.65817 5.66909 2.65817 6.01525C2.65817 6.36141 2.37655 6.643 2.03042 6.643ZM6.01011 2.22741C5.66399 2.22741 5.38236 1.94581 5.38236 1.59966C5.38236 1.2535 5.66396 0.971937 6.01011 0.971937C6.35627 0.971937 6.63786 1.25353 6.63786 1.59966C6.63786 1.94578 6.35624 2.22741 6.01011 2.22741ZM9.9898 5.44578C9.64367 5.44578 9.36205 5.16419 9.36205 4.81806C9.36205 4.47194 9.64364 4.19031 9.9898 4.19031C10.336 4.19031 10.6175 4.47191 10.6175 4.81806C10.6175 5.16422 10.3359 5.44578 9.9898 5.44578Z" fill="#666666"/>
<path d="M13.9423 6.05103C13.0982 6.05103 12.4114 6.73784 12.4114 7.58199V16H15.4733V7.58199C15.4733 6.73784 14.7865 6.05103 13.9423 6.05103ZM14.5348 15.0614H13.3499V7.58199C13.3499 7.25537 13.6157 6.98962 13.9423 6.98962C14.269 6.98962 14.5347 7.25537 14.5347 7.58199L14.5348 15.0614Z" fill="#666666"/>
<path d="M9.98971 9.88574C9.14555 9.88574 8.45874 10.5725 8.45874 11.4167V16H11.5207V11.4167C11.5207 10.5725 10.8339 9.88574 9.98971 9.88574ZM10.5821 15.0614H9.3973V11.4167C9.3973 11.0901 9.66305 10.8243 9.98968 10.8243C10.3163 10.8243 10.5821 11.0901 10.5821 11.4167L10.5821 15.0614Z" fill="#666666"/>
<path d="M5.98559 7.30261C5.1414 7.30261 4.45459 7.98939 4.45459 8.83361V16H7.51659V8.83361C7.51659 7.98942 6.82981 7.30261 5.98559 7.30261ZM6.57803 15.0615H5.39318V8.83361C5.39318 8.50696 5.65893 8.24121 5.98559 8.24121C6.31225 8.24121 6.578 8.50696 6.578 8.83361V15.0615H6.57803Z" fill="#666666"/>
<path d="M2.0332 11.2915C1.18901 11.2915 0.502197 11.9783 0.502197 12.8225V16H3.56417V12.8225C3.56417 11.9783 2.87735 11.2915 2.0332 11.2915ZM2.62557 15.0614H1.44079V12.8225C1.44079 12.4958 1.70654 12.2301 2.0332 12.2301C2.35982 12.2301 2.62557 12.4958 2.62557 12.8225V15.0614Z" fill="#666666"/>
</g>
<defs>
<clipPath id="clip0_2103_3151">
<rect width="16" height="16" fill="white"/>
</clipPath>
</defs>
</svg>
